<svg width="28px" height="28px" viewBox="0 0 28 28" version="1.1" xmlns="http://www.w3.org/2000/svg" xmlns:xlink="http://www.w3.org/1999/xlink">
    <g id="Symbols" stroke="none" stroke-width="1" fill="none" fill-rule="evenodd">
        <g id="Header" transform="translate(-1277.000000, -38.000000)" fill="#007397">
            <g id="Page-1" transform="translate(1277.000000, 38.000000)">
                <path d="M13.8478261,1.50537634 C6.88313043,1.50537634 1.2173913,7.11019355 1.2173913,14 C1.2173913,20.8898065 6.88313043,26.4946237 13.8478261,26.4946237 C20.8125217,26.4946237 26.4794783,20.8898065 26.4794783,14 C26.4794783,7.11019355 20.8125217,1.50537634 13.8478261,1.50537634 M13.8478261,27.6989247 C6.21234783,27.6989247 0,21.5533763 0,14 C0,6.44662366 6.21234783,0.301075269 13.8478261,0.301075269 C21.4845217,0.301075269 27.6968696,6.44662366 27.6968696,14 C27.6968696,21.5533763 21.4845217,27.6989247 13.8478261,27.6989247" id="Fill-1"></path>
                <path d="M13.8478261,1.50537634 C9.96069565,1.50537634 6.79791304,7.11019355 6.79791304,14 C6.79791304,20.8898065 9.96069565,26.4946237 13.8478261,26.4946237 C17.7337391,26.4946237 20.8953043,20.8898065 20.8953043,14 C20.8953043,7.11019355 17.7337391,1.50537634 13.8478261,1.50537634 M13.8478261,27.6989247 C9.28869565,27.6989247 5.58052174,21.5533763 5.58052174,14 C5.58052174,6.44662366 9.28869565,0.301075269 13.8478261,0.301075269 C18.4057391,0.301075269 22.1126957,6.44662366 22.1126957,14 C22.1126957,21.5533763 18.4057391,27.6989247 13.8478261,27.6989247" id="Fill-3"></path>
                <path d="M14.4565217,1.51946667 L14.4565217,26.4810151 C21.14,26.1654882 26.4794783,20.6883269 26.4794783,13.9996387 C26.4794783,7.31215484 21.14,1.83499355 14.4565217,1.51946667 M13.8478261,27.6985634 C13.5118261,27.6985634 13.2391304,27.4300043 13.2391304,27.0964129 L13.2391304,0.902864516 C13.2391304,0.570477419 13.5118261,0.300713978 13.8478261,0.300713978 C21.4845217,0.300713978 27.6968696,6.44626237 27.6968696,13.9996387 C27.6968696,21.5530151 21.4845217,27.6985634 13.8478261,27.6985634" id="Fill-5"></path>
                <path d="M1.89681739,18.0139355 L25.7966435,18.0139355 C26.249513,16.7036559 26.4796,15.3548387 26.4796,14 C26.4796,12.6451613 26.249513,11.2963441 25.7954261,9.98486022 L1.89925217,9.98486022 C1.44638261,11.2927312 1.21751304,12.6415484 1.21751304,14 C1.21751304,15.356043 1.44516522,16.7048602 1.89681739,18.0139355 M26.2239478,19.2182366 L1.46829565,19.2182366 C1.21507826,19.2182366 0.987426087,19.0628817 0.898556522,18.828043 C0.302034783,17.2612473 0.00012173913,15.6366452 0.00012173913,14 C0.00012173913,12.3597419 0.303252174,10.7351398 0.902208696,9.16954839 C0.992295652,8.93470968 1.21873043,8.78055914 1.47194783,8.78055914 L26.2239478,8.78055914 C26.4771652,8.78055914 26.7036,8.93591398 26.793687,9.16954839 C27.3926435,10.739957 27.6969913,12.3657634 27.6969913,14 C27.6969913,15.6354409 27.3926435,17.260043 26.793687,18.8292473 C26.7036,19.0628817 26.4771652,19.2182366 26.2239478,19.2182366" id="Fill-8"></path>
            </g>
        </g>
    </g>
</svg>