
<svg width="172px" height="20px" viewBox="0 0 172 20" version="1.1" xmlns="http://www.w3.org/2000/svg" xmlns:xlink="http://www.w3.org/1999/xlink">
    <g id="Symbols" stroke="none" stroke-width="1" fill="none" fill-rule="evenodd">
        <path d="M9.76567164,0 C11.3059779,0 12.6559644,0.20891156 13.8156716,0.626740947 C14.9753789,1.04457033 15.8664148,1.63416518 16.488806,2.39554318 C17.1111971,3.15692117 17.4223881,4.04363468 17.4223881,5.05571031 C17.4223881,6.03993064 17.1291074,6.92200167 16.5425373,7.70194986 C15.9559672,8.48189805 15.1656766,9.02506811 14.1716418,9.33147632 C15.3268714,9.60074415 16.2537279,10.1949815 16.9522388,11.1142061 C17.6507498,12.0334308 18,13.1244134 18,14.3871866 C18,15.5106834 17.6776152,16.4995315 17.0328358,17.3537604 C16.3880565,18.2079894 15.4835879,18.862579 14.319403,19.3175487 C13.1552181,19.7725185 11.7940376,20 10.2358209,20 L0,20 L0,0 L9.76567164,0 Z M7,8 L9.71428571,8 C10.1031765,8 10.4146814,7.90686368 10.6488095,7.72058824 C10.8829377,7.53431279 11,7.28758324 11,6.98039216 C11,6.68627304 10.8829377,6.4493473 10.6488095,6.26960784 C10.4146814,6.08986838 10.1031765,6 9.71428571,6 L7,6 L7,8 Z M5,15 L8.66756032,15 C9.37533866,15 9.94101665,14.8538827 10.3646113,14.5616438 C10.7882059,14.2694049 11,13.8904133 11,13.4246575 C11,12.9954316 10.7855249,12.6506862 10.3565684,12.390411 C9.9276118,12.1301357 9.36461475,12 8.66756032,12 L5,12 L5,15 Z M42,11.3736264 C42,13.0952467 41.6139371,14.60851 40.8417997,15.9134615 C40.0696623,17.2184131 38.9735194,18.2257291 37.5533382,18.9354396 C36.1331569,19.6451501 34.4717076,20 32.5689405,20 C30.6661734,20 28.9909361,19.6451501 27.5431785,18.9354396 C26.0954209,18.2257291 24.9762981,17.2184131 24.1857765,15.9134615 C23.3952549,14.60851 23,13.0952467 23,11.3736264 L23,0 L29.5493469,0 L29.5493469,11.3736264 C29.5493469,12.307697 29.845788,13.0746307 30.4386792,13.6744505 C31.0315705,14.2742704 31.7508424,14.5741758 32.5965167,14.5741758 C33.4238067,14.5741758 34.1063108,14.2834278 34.6440493,13.7019231 C35.1817879,13.1204183 35.4506531,12.3443272 35.4506531,11.3736264 L35.4506531,0 L42,0 L42,11.3736264 Z M57.5667166,0 C59.0779686,0 60.5847001,0.208614694 62.0869565,0.62585034 C63.5892129,1.04308599 64.8935477,1.60543864 66,2.31292517 L63.6791604,7.21088435 C62.5906992,6.6122419 61.4055536,6.08163497 60.1236882,5.61904762 C58.8418227,5.15646027 57.8051014,4.92517007 57.0134933,4.92517007 C56.2218851,4.92517007 55.826087,5.19727619 55.826087,5.7414966 C55.826087,6.1496619 56.0757096,6.4693866 56.5749625,6.70068027 C57.0742154,6.93197395 57.8635628,7.18820721 58.9430285,7.46938776 C60.3463339,7.8412717 61.5044932,8.22222027 62.4175412,8.6122449 C63.3305893,9.00226952 64.131181,9.6099732 64.8193403,10.4353741 C65.5074997,11.2607751 65.8515742,12.3628049 65.8515742,13.7414966 C65.8515742,15.138329 65.4895089,16.3038502 64.7653673,17.2380952 C64.0412258,18.1723403 63.0607258,18.8662109 61.8238381,19.3197279 C60.5869503,19.7732449 59.2129011,20 57.7016492,20 C55.9924952,20 54.2676249,19.7278939 52.5269865,19.1836735 C50.7863481,18.6394531 49.2773677,17.8730208 48,16.8843537 L50.3883058,12.0408163 C51.3688205,12.8571469 52.5944454,13.5668904 54.0652174,14.170068 C55.5359894,14.7732456 56.766112,15.0748299 57.7556222,15.0748299 C58.7901101,15.0748299 59.3073463,14.7392324 59.3073463,14.0680272 C59.3073463,13.6417212 59.0532259,13.3129263 58.5449775,13.0816327 C58.0367291,12.850339 57.2203954,12.5941057 56.095952,12.3129252 C54.7286288,11.9773226 53.5862115,11.6235846 52.6686657,11.2517007 C51.7511199,10.8798167 50.9572747,10.2993237 50.2871064,9.51020408 C49.6169382,8.72108449 49.2818591,7.66894082 49.2818591,6.3537415 C49.2818591,5.07482354 49.6214359,3.95692088 50.3005997,3 C50.9797635,2.04307912 51.9467703,1.30385748 53.2016492,0.782312925 C54.456528,0.260768367 55.911536,0 57.5667166,0 Z M71,20 L71,0 L78,0 L78,20 L71,20 Z M97.5928315,20 L89.897491,9.79108635 L89.897491,20 L84,20 L84,0 L89.4207885,0 L97.1433692,10.2785515 L97.1433692,0 L103,0 L103,20 L97.5928315,20 Z M116.562855,5.02785515 L116.562855,7.47910864 L125.814274,7.47910864 L125.814274,12.4930362 L116.562855,12.4930362 L116.562855,14.9860724 L127,14.9860724 L127,20 L110,20 L110,0 L126.751825,0 L126.751825,5.02785515 L116.562855,5.02785515 Z M140.566717,0 C142.077969,0 143.5847,0.208614694 145.086957,0.62585034 C146.589213,1.04308599 147.893548,1.60543864 149,2.31292517 L146.67916,7.21088435 C145.590699,6.6122419 144.405554,6.08163497 143.123688,5.61904762 C141.841823,5.15646027 140.805101,4.92517007 140.013493,4.92517007 C139.221885,4.92517007 138.826087,5.19727619 138.826087,5.7414966 C138.826087,6.1496619 139.07571,6.4693866 139.574963,6.70068027 C140.074215,6.93197395 140.863563,7.18820721 141.943028,7.46938776 C143.346334,7.8412717 144.504493,8.22222027 145.417541,8.6122449 C146.330589,9.00226952 147.131181,9.6099732 147.81934,10.4353741 C148.5075,11.2607751 148.851574,12.3628049 148.851574,13.7414966 C148.851574,15.138329 148.489509,16.3038502 147.765367,17.2380952 C147.041226,18.1723403 146.060726,18.8662109 144.823838,19.3197279 C143.58695,19.7732449 142.212901,20 140.701649,20 C138.992495,20 137.267625,19.7278939 135.526987,19.1836735 C133.786348,18.6394531 132.277368,17.8730208 131,16.8843537 L133.388306,12.0408163 C134.36882,12.8571469 135.594445,13.5668904 137.065217,14.170068 C138.535989,14.7732456 139.766112,15.0748299 140.755622,15.0748299 C141.79011,15.0748299 142.307346,14.7392324 142.307346,14.0680272 C142.307346,13.6417212 142.053226,13.3129263 141.544978,13.0816327 C141.036729,12.850339 140.220395,12.5941057 139.095952,12.3129252 C137.728629,11.9773226 136.586211,11.6235846 135.668666,11.2517007 C134.75112,10.8798167 133.957275,10.2993237 133.287106,9.51020408 C132.616938,8.72108449 132.281859,7.66894082 132.281859,6.3537415 C132.281859,5.07482354 132.621436,3.95692088 133.3006,3 C133.979764,2.04307912 134.94677,1.30385748 136.201649,0.782312925 C137.456528,0.260768367 138.911536,0 140.566717,0 Z M163.566717,0 C165.077969,0 166.5847,0.208614694 168.086957,0.62585034 C169.589213,1.04308599 170.893548,1.60543864 172,2.31292517 L169.67916,7.21088435 C168.590699,6.6122419 167.405554,6.08163497 166.123688,5.61904762 C164.841823,5.15646027 163.805101,4.92517007 163.013493,4.92517007 C162.221885,4.92517007 161.826087,5.19727619 161.826087,5.7414966 C161.826087,6.1496619 162.07571,6.4693866 162.574963,6.70068027 C163.074215,6.93197395 163.863563,7.18820721 164.943028,7.46938776 C166.346334,7.8412717 167.504493,8.22222027 168.417541,8.6122449 C169.330589,9.00226952 170.131181,9.6099732 170.81934,10.4353741 C171.5075,11.2607751 171.851574,12.3628049 171.851574,13.7414966 C171.851574,15.138329 171.489509,16.3038502 170.765367,17.2380952 C170.041226,18.1723403 169.060726,18.8662109 167.823838,19.3197279 C166.58695,19.7732449 165.212901,20 163.701649,20 C161.992495,20 160.267625,19.7278939 158.526987,19.1836735 C156.786348,18.6394531 155.277368,17.8730208 154,16.8843537 L156.388306,12.0408163 C157.36882,12.8571469 158.594445,13.5668904 160.065217,14.170068 C161.535989,14.7732456 162.766112,15.0748299 163.755622,15.0748299 C164.79011,15.0748299 165.307346,14.7392324 165.307346,14.0680272 C165.307346,13.6417212 165.053226,13.3129263 164.544978,13.0816327 C164.036729,12.850339 163.220395,12.5941057 162.095952,12.3129252 C160.728629,11.9773226 159.586211,11.6235846 158.668666,11.2517007 C157.75112,10.8798167 156.957275,10.2993237 156.287106,9.51020408 C155.616938,8.72108449 155.281859,7.66894082 155.281859,6.3537415 C155.281859,5.07482354 155.621436,3.95692088 156.3006,3 C156.979764,2.04307912 157.94677,1.30385748 159.201649,0.782312925 C160.456528,0.260768367 161.911536,0 163.566717,0 Z" id="BUSINESS" fill="#007397" fill-rule="nonzero"></path>
    </g>
</svg>